<?xml version="1.0" standalone="no"?>
<!DOCTYPE svg PUBLIC "-//W3C//DTD SVG 20010904//EN"
 "http://www.w3.org/TR/2001/REC-SVG-20010904/DTD/svg10.dtd">
<svg version="1.0" xmlns="http://www.w3.org/2000/svg"
 width="249.000000pt" height="249.000000pt" viewBox="0 0 249.000000 249.000000"
 preserveAspectRatio="xMidYMid meet">
<metadata>
Created by potrace 1.11, written by Peter Selinger 2001-2013
</metadata>
<g transform="translate(0.000000,249.000000) scale(0.100000,-0.100000)"
fill="#000000" stroke="none">
<path d="M1247 2478 c-9 -7 -17 -19 -19 -27 -2 -7 -12 -23 -23 -36 -56 -62
-75 -89 -75 -111 0 -14 -5 -24 -12 -23 -28 3 -39 -2 -47 -24 -6 -16 -26 -30
-58 -42 -77 -28 -110 -53 -144 -106 -19 -29 -40 -49 -50 -49 -12 0 -21 -10
-25 -27 -10 -50 -13 -53 -42 -53 -20 0 -40 -13 -71 -44 -36 -36 -43 -49 -38
-72 4 -22 -5 -40 -42 -88 -139 -179 -194 -343 -187 -556 8 -218 90 -408 245
-566 103 -106 224 -176 391 -226 83 -25 287 -33 380 -14 353 72 623 345 679
686 20 118 19 162 -3 315 -13 91 -94 263 -164 350 -40 49 -48 66 -45 90 4 25
-3 38 -38 73 -32 32 -50 42 -68 40 -22 -3 -27 3 -36 36 -7 25 -20 43 -38 53
-15 7 -27 20 -27 27 0 19 -98 116 -118 116 -9 0 -33 5 -52 10 -28 8 -38 17
-45 42 -8 27 -15 33 -36 31 -22 -1 -26 3 -26 25 0 15 -11 34 -25 46 -13 12
-29 33 -36 49 -6 15 -16 27 -22 27 -5 0 -10 6 -10 14 0 18 -27 46 -44 46 -7 0
-20 -6 -29 -12z"/>
<path d="M613 528 c-100 -106 -232 -258 -240 -275 -5 -10 -9 -25 -8 -33 1 -8
3 -25 3 -38 2 -26 46 -73 85 -90 36 -15 115 -15 146 1 20 10 31 23 48 55 1 2
41 -14 90 -36 199 -89 321 -112 563 -108 204 4 291 20 457 86 l82 32 29 -24
c35 -29 113 -36 165 -14 55 23 97 72 97 115 0 30 -17 59 -105 176 -152 203
-156 206 -208 165 -14 -11 -34 -20 -45 -20 -10 0 -43 -13 -73 -29 -58 -31
-183 -78 -227 -86 -15 -2 -49 -9 -77 -14 -49 -10 -205 -8 -277 3 -63 10 -212
63 -266 95 -29 17 -65 31 -79 31 -14 0 -33 8 -42 19 -9 10 -30 21 -47 25 -28
6 -36 2 -71 -36z"/>
</g>
</svg>
